<?xml version="1.0" encoding="utf-8"?>
<!-- Generator: Adobe Illustrator 23.0.2, SVG Export Plug-In . SVG Version: 6.00 Build 0)  -->
<svg version="1.1" id="Layer_1" xmlns="http://www.w3.org/2000/svg" xmlns:xlink="http://www.w3.org/1999/xlink" x="0px" y="0px"
	 viewBox="0 0 1080 1080" style="enable-background:new 0 0 1080 1080;" xml:space="preserve">
<style type="text/css">
	.st0{fill:#E98B2D;}
	.st1{fill:#2F9583;}
	.st2{fill:url(#SVGID_1_);}
</style>
<g>
	<g>
		<g>
			<path class="st0" d="M640.1,506.2c10.9-16.3,17.1-35.5,17.1-55.8c0-60.9-55.6-110.2-124.2-110.2c-68.6,0-124.2,49.4-124.2,110.2
				c0,20.9,6.5,40.3,17.8,57l0,0l-67.1,67.2c-24.1-35.1-38.3-77.8-38.3-123.9c0-26.4,4.6-51.7,13.1-75.2
				c29.9-82.7,107.5-142,198.7-142c91.1,0,168.8,59.3,198.7,141.9L640.1,506.2z"/>
		</g>
		<g>
			<polygon class="st1" points="744.8,356.6 744.7,445.1 744.7,454.5 744.6,520.7 706.5,574.6 590.4,739 743.3,739 743.3,833.2 
				322.7,833.2 322.7,739 475.5,739 359.4,574.6 426.5,507.4 532.9,659.5 640.1,506.2 731.6,375.4 			"/>
		</g>
		<linearGradient id="SVGID_1_" gradientUnits="userSpaceOnUse" x1="430.3412" y1="575.913" x2="356.5665" y2="477.5625">
			<stop  offset="0" style="stop-color:#2F9583"/>
			<stop  offset="1" style="stop-color:#E98B2B"/>
		</linearGradient>
		<path class="st2" d="M470,569.5l-66.9,66.9l-43.7-61.8c-24.1-35.1-38.3-77.8-38.3-123.9v-0.4h87.6c0,0,0,0,0,0.1
			c0,20.9,6.5,40.3,17.8,57l0,0L470,569.5z"/>
	</g>
</g>
</svg>
